<svg width="24" height="24" viewBox="0 0 24 24" fill="none" xmlns="http://www.w3.org/2000/svg">
<rect width="24" height="24" fill="white"/>
<path fill-rule="evenodd" clip-rule="evenodd" d="M16 6C16 8.20914 14.2091 10 12 10C9.79086 10 8 8.20914 8 6C8 3.79086 9.79086 2 12 2C14.2091 2 16 3.79086 16 6ZM14 6C14 7.10457 13.1046 8 12 8C10.8954 8 10 7.10457 10 6C10 4.89543 10.8954 4 12 4C13.1046 4 14 4.89543 14 6Z" fill="#555555"/>
<path fill-rule="evenodd" clip-rule="evenodd" d="M8.30544 10C6.48824 10 4.92366 11.2826 4.56728 13.0646L3.73709 17.2155C3.24205 19.6907 5.13522 22 7.65941 22H16.3406C18.8648 22 20.7579 19.6907 20.2629 17.2155L19.4327 13.0646C19.0763 11.2827 17.5118 10 15.6946 10H15.5701C15.0938 10 14.6202 10.0702 14.1644 10.2083C12.7532 10.636 11.2468 10.636 9.83558 10.2083C9.37981 10.0702 8.90616 10 8.42992 10H8.30544ZM6.52844 13.4568C6.69786 12.6097 7.44161 12 8.30544 12H8.42992C8.70965 12 8.98786 12.0412 9.25556 12.1223C11.045 12.6646 12.955 12.6646 14.7444 12.1223C15.0121 12.0412 15.2903 12 15.5701 12H15.6946C16.5584 12 17.3021 12.6097 17.4716 13.4568L18.3017 17.6078C18.5493 18.8454 17.6027 20 16.3406 20H7.65941C6.39732 20 5.45073 18.8454 5.69825 17.6078L6.52844 13.4568Z" fill="#555555"/>
</svg>
