<svg width="24" height="24" viewBox="0 0 24 24" fill="none" xmlns="http://www.w3.org/2000/svg">
<rect width="24" height="24" fill="white"/>
<path d="M18.0254 6.77539C18.1496 6.23734 18.6866 5.90139 19.2246 6.02539C19.7627 6.14956 20.0986 6.68656 19.9746 7.22461L17.1533 19.4502C16.9437 20.3574 16.1353 21 15.2041 21H8.7959C7.86474 21 7.05625 20.3574 6.84668 19.4502L4.02539 7.22461L4.00781 7.12402C3.94434 6.62118 4.27089 6.14181 4.77539 6.02539C5.27982 5.90914 5.78305 6.19699 5.94629 6.67676L5.97461 6.77539L8.7959 19H15.2041L18.0254 6.77539Z" fill="#FF5D5D"/>
<path d="M8.88965 7.00586C9.40407 6.94876 9.8708 7.29282 9.97754 7.78809L9.99414 7.88965L10.9941 16.8896L11 16.9922C11.0046 17.4988 10.6248 17.937 10.1104 17.9941C9.59593 18.0512 9.1292 17.7072 9.02246 17.2119L9.00586 17.1104L8.00586 8.11035L8 8.00781C7.99543 7.50117 8.37519 7.06302 8.88965 7.00586Z" fill="#FF5D5D"/>
<path d="M15.1104 7.00586C15.6592 7.06685 16.0551 7.56149 15.9941 8.11035L14.9941 17.1104C14.9332 17.6592 14.4385 18.0551 13.8896 17.9941C13.3408 17.9332 12.9449 17.4385 13.0059 16.8896L14.0059 7.88965C14.0668 7.34078 14.5615 6.94493 15.1104 7.00586Z" fill="#FF5D5D"/>
<path d="M20 3.5C20.5523 3.5 21 3.94772 21 4.5C21 5.05228 20.5523 5.5 20 5.5H4C3.44772 5.5 3 5.05228 3 4.5C3 3.94772 3.44772 3.5 4 3.5H20Z" fill="#FF5D5D"/>
</svg>
