<svg width="24" height="24" viewBox="0 0 24 24" fill="none" xmlns="http://www.w3.org/2000/svg">
<path fill-rule="evenodd" clip-rule="evenodd" d="M18.0887 2.19229C18.3454 1.93572 18.7617 1.93576 19.0184 2.19229L21.8075 4.98135C22.0641 5.23804 22.0641 5.65433 21.8075 5.91104L6.46813 21.2504L2.78649 21.9867L2.70104 21.9984C2.30608 22.026 1.97374 21.6937 2.00133 21.2987L2.01305 21.2133L2.74938 17.5316L18.0887 2.19229ZM3.5482 20.1664C3.52332 20.2908 3.49892 20.4104 3.47643 20.5229L4.59654 20.2987L3.70055 19.4023C3.64757 19.6671 3.59623 19.9263 3.5482 20.1664ZM5.5277 19.391L6.00816 19.8715L18.5687 7.31045L18.0882 6.82999L5.5277 19.391ZM12.3827 9.73672C9.82615 12.2933 6.68448 15.4344 4.12779 17.9911L4.60826 18.4716L17.1693 5.91104L16.6888 5.43057L12.3827 9.73672ZM17.6078 4.51114L19.4881 6.39151L20.4335 5.4462L18.5531 3.56583L17.6078 4.51114Z" fill="#555555"/>
</svg>
