<svg width="24" height="24" viewBox="0 0 24 24" fill="none" xmlns="http://www.w3.org/2000/svg">
<rect width="24" height="24" fill="white"/>
<path d="M14 2C15.1046 2 16 2.89543 16 4V8C16 8.55228 15.5523 9 15 9C14.4477 9 14 8.55228 14 8V4H5V20H14V16C14 15.4477 14.4477 15 15 15C15.5523 15 16 15.4477 16 16V20C16 21.1046 15.1046 22 14 22H5C3.89543 22 3 21.1046 3 20V4C3 2.89543 3.89543 2 5 2H14Z" fill="#555555"/>
<path d="M17.5527 5.10547C18.0158 4.87402 18.5724 5.03591 18.8438 5.46387L18.8945 5.55273L21.8945 11.5527C22.0352 11.8342 22.0352 12.1658 21.8945 12.4473L18.8945 18.4473C18.6475 18.9411 18.0466 19.1414 17.5527 18.8945C17.0589 18.6475 16.8587 18.0466 17.1055 17.5527L19.3818 13H11.5C10.9478 13 10.5001 12.5522 10.5 12C10.5001 11.4478 10.9478 11 11.5 11H19.3818L17.1055 6.44727L17.0645 6.35352C16.8849 5.87967 17.0898 5.33702 17.5527 5.10547Z" fill="#555555"/>
</svg>
