<svg width="24" height="24" viewBox="0 0 24 24" fill="none" xmlns="http://www.w3.org/2000/svg">
<path fill-rule="evenodd" clip-rule="evenodd" d="M10.8428 3.68534C11.584 3.15895 12.5997 3.19693 13.3018 3.79863L19.3018 8.9412L19.459 9.09159C19.8047 9.46019 19.9999 9.94904 20 10.4598V18.9998C19.9999 20.1043 19.1045 20.9998 18 20.9998H6C4.89546 20.9998 4.00005 20.1043 4 18.9998V10.4598C4.00014 9.87611 4.2551 9.32106 4.69824 8.9412L10.6982 3.79863L10.8428 3.68534ZM6 10.4598V18.9998H9V12.9998C9.00011 11.8953 9.8955 10.9998 11 10.9998H13C14.1045 10.9998 14.9999 11.8953 15 12.9998V18.9998H18V10.4598L12 5.31718L6 10.4598ZM11 18.9998H13V12.9998H11V18.9998Z" fill="#555555"/>
</svg>
